<svg xmlns="http://www.w3.org/2000/svg" viewBox="0 0 447.94 83.85" xmlns:v="https://vecta.io/nano"><path d="M32.17 47.14l13.61 1.55a19.1 19.1 0 0 1-3.69 7.37 17.1 17.1 0 0 1-6.56 4.83c-2.66 1.15-6.04 1.72-10.14 1.72s-7.26-.37-9.9-1.11-4.9-1.93-6.8-3.58-3.39-3.59-4.46-5.81c-1.08-2.22-1.62-5.17-1.62-8.85s.66-7.04 1.97-9.59c.96-1.87 2.27-3.55 3.94-5.04a18.2 18.2 0 0 1 5.13-3.32c2.79-1.15 6.36-1.72 10.72-1.72 6.09 0 10.74 1.09 13.94 3.27s5.44 5.37 6.73 9.56l-13.46 1.79c-.42-1.59-1.19-2.79-2.3-3.6s-2.61-1.21-4.48-1.21c-2.37 0-4.28.85-5.75 2.54-1.46 1.7-2.2 4.26-2.2 7.7 0 3.06.73 5.39 2.18 6.98s3.3 2.39 5.55 2.39c1.88 0 3.45-.48 4.73-1.44s2.23-2.44 2.87-4.43z"/><path d="M60.62 36.53l-13.68-1.44c.52-2.39 1.26-4.27 2.23-5.64a12.3 12.3 0 0 1 4.2-3.57c1.31-.73 3.12-1.29 5.41-1.69a43.5 43.5 0 0 1 7.45-.6 59.4 59.4 0 0 1 10.34.72 13.2 13.2 0 0 1 6.5 3.01c1.22 1.05 2.18 2.55 2.88 4.48S87 35.58 87 37.34v16.49c0 1.76.11 3.13.33 4.13s.71 2.27 1.46 3.81H75.36a12.9 12.9 0 0 1-1.05-2.2c-.16-.5-.33-1.29-.49-2.37-1.88 1.81-3.74 3.09-5.59 3.87-2.53 1.03-5.47 1.55-8.82 1.55-4.45 0-7.83-1.03-10.14-3.09a9.8 9.8 0 0 1-3.46-7.63c0-2.84.83-5.17 2.5-7 1.66-1.83 4.73-3.19 9.21-4.08l10.44-2.27a46.5 46.5 0 0 0 5.06-1.71c0-1.76-.36-2.99-1.09-3.69s-2-1.05-3.83-1.05c-2.34 0-4.1.38-5.27 1.12-.91.59-1.65 1.69-2.21 3.3zm12.41 7.52a69 69 0 0 1-6.15 1.86c-2.91.77-4.75 1.54-5.52 2.29-.8.77-1.2 1.65-1.2 2.64 0 1.12.39 2.04 1.18 2.76s1.94 1.07 3.46 1.07 3.08-.39 4.45-1.16 2.34-1.72 2.92-2.83c.57-1.11.86-2.56.86-4.34v-2.29zM91.2 24.43h13.39v6.12c1.29-2.65 2.62-4.47 3.99-5.47s3.06-1.49 5.08-1.49 4.42.66 6.93 1.97l-4.43 10.2c-1.69-.7-3.02-1.05-4.01-1.05a4.9 4.9 0 0 0-4.36 2.32c-1.48 2.18-2.21 6.26-2.21 12.23v12.52H91.2V24.43z"/><path d="M138.21 10.23v14.2h7.88v10.48h-7.88v13.23c0 1.59.15 2.64.46 3.16.47.8 1.29 1.19 2.46 1.19 1.05 0 2.53-.3 4.43-.91l1.05 9.88c-3.54.77-6.84 1.16-9.91 1.16-3.56 0-6.19-.46-7.88-1.37a8.3 8.3 0 0 1-3.74-4.16c-.81-1.86-1.21-4.88-1.21-9.04V34.92h-5.27V24.44h5.27v-6.86l14.34-7.35z"/><path d="M189.63 46.65h-28.69c.26 2.3.88 4.01 1.86 5.13 1.38 1.62 3.19 2.43 5.41 2.43 1.41 0 2.74-.35 4.01-1.05.77-.44 1.6-1.23 2.5-2.36l14.1 1.3c-2.16 3.75-4.76 6.44-7.8 8.07-3.05 1.63-7.42 2.44-13.11 2.44-4.95 0-8.84-.7-11.67-2.09-2.84-1.39-5.19-3.61-7.05-6.64-1.86-3.04-2.79-6.6-2.79-10.71 0-5.84 1.87-10.56 5.61-14.17s8.9-5.41 15.49-5.41c5.34 0 9.56.81 12.66 2.43a16.4 16.4 0 0 1 7.07 7.03c1.62 3.07 2.43 7.07 2.43 11.99v1.62zm-14.55-6.86c-.28-2.77-1.03-4.75-2.23-5.94-1.21-1.2-2.79-1.79-4.76-1.79-2.27 0-4.09.9-5.45 2.71-.87 1.12-1.42 2.8-1.65 5.03h14.1zm11.76-15.36h16.98l5.92 10.41 6.91-10.41h15.79L219.7 42.22l13.65 19.55h-16.7l-6.91-12.02-8.1 12.02h-15.5l13.56-19.55-12.86-17.79zm58.59 12.1l-13.68-1.44c.52-2.39 1.26-4.27 2.23-5.64a12.3 12.3 0 0 1 4.2-3.57c1.31-.73 3.12-1.29 5.41-1.69a43.5 43.5 0 0 1 7.45-.6 59.4 59.4 0 0 1 10.34.72 13.2 13.2 0 0 1 6.5 3.01c1.22 1.05 2.18 2.55 2.88 4.48s1.05 3.78 1.05 5.54v16.49c0 1.76.11 3.13.33 4.13s.71 2.27 1.46 3.81h-13.43a12.9 12.9 0 0 1-1.05-2.2c-.16-.5-.33-1.29-.49-2.37-1.88 1.81-3.74 3.09-5.59 3.87-2.53 1.03-5.47 1.55-8.82 1.55-4.45 0-7.83-1.03-10.14-3.09a9.8 9.8 0 0 1-3.46-7.63c0-2.84.83-5.17 2.5-7 1.66-1.83 4.73-3.19 9.21-4.08l10.44-2.27a46.5 46.5 0 0 0 5.06-1.71c0-1.76-.36-2.99-1.09-3.69s-2-1.05-3.83-1.05c-2.34 0-4.1.38-5.27 1.12-.91.59-1.65 1.69-2.21 3.3zm12.41 7.52a69 69 0 0 1-6.15 1.86c-2.91.77-4.75 1.54-5.52 2.29-.8.77-1.2 1.65-1.2 2.64 0 1.12.39 2.04 1.18 2.76s1.94 1.07 3.46 1.07 3.08-.39 4.45-1.16 2.34-1.72 2.92-2.83c.57-1.11.86-2.56.86-4.34v-2.29zm18.18-19.62h13.36v5.45c1.92-2.27 3.87-3.89 5.83-4.85s4.32-1.44 7.09-1.44c2.98 0 5.34.53 7.08 1.58s3.16 2.62 4.26 4.71c2.25-2.44 4.29-4.1 6.14-4.97s4.13-1.32 6.85-1.32c4 0 7.13 1.19 9.37 3.57 2.25 2.38 3.37 6.1 3.37 11.16v23.45h-14.34V40.5c0-1.69-.33-2.94-.98-3.76a4.3 4.3 0 0 0-3.57-1.93c-1.68 0-3.04.61-4.06 1.83-1.03 1.22-1.54 3.18-1.54 5.87v19.27h-14.34V41.21c0-1.64-.09-2.75-.28-3.34-.31-.94-.83-1.69-1.59-2.27-.75-.57-1.63-.86-2.65-.86a5.1 5.1 0 0 0-4.06 1.86c-1.06 1.24-1.59 3.28-1.59 6.12v19.05h-14.34V24.43zm67.58 51.54V24.43h13.39v5.52c1.85-2.32 3.55-3.89 5.1-4.71a14.6 14.6 0 0 1 6.93-1.65c4.99 0 8.85 1.91 11.58 5.73s4.1 8.54 4.1 14.17c0 6.21-1.49 10.95-4.46 14.22a14.6 14.6 0 0 1-11.29 4.9c-2.2 0-4.21-.38-6.03-1.12a14.3 14.3 0 0 1-4.87-3.34v17.82H343.6zm14.34-32.77c0 2.95.62 5.15 1.86 6.57 1.24 1.43 2.81 2.14 4.71 2.14a5.2 5.2 0 0 0 4.18-2.06c1.12-1.37 1.69-3.7 1.69-6.98 0-3.02-.59-5.24-1.76-6.66s-2.6-2.13-4.29-2.13c-1.83 0-3.35.72-4.57 2.14-1.22 1.43-1.83 3.75-1.83 6.96zm29.7-32.97h14.34v51.54h-14.34V10.23zm60.28 36.42h-28.69c.26 2.3.88 4.01 1.86 5.13 1.38 1.62 3.19 2.43 5.41 2.43 1.41 0 2.74-.35 4.01-1.05.77-.44 1.61-1.23 2.5-2.36l14.1 1.3c-2.16 3.75-4.76 6.44-7.8 8.07s-7.42 2.44-13.11 2.44c-4.95 0-8.84-.7-11.67-2.09-2.84-1.39-5.19-3.61-7.05-6.64-1.86-3.04-2.79-6.6-2.79-10.71 0-5.84 1.87-10.56 5.61-14.17s8.9-5.41 15.49-5.41c5.34 0 9.56.81 12.66 2.43a16.4 16.4 0 0 1 7.07 7.03c1.62 3.07 2.43 7.07 2.43 11.99v1.62zm-14.55-6.86c-.28-2.77-1.03-4.75-2.23-5.94-1.21-1.2-2.79-1.79-4.76-1.79-2.27 0-4.09.9-5.45 2.71-.87 1.12-1.42 2.8-1.65 5.03h14.1z" fill="#009245"/></svg>